<mxfile host="65bd71144e">
    <diagram id="VRixf2OWIIXw2z-pCyVq" name="Page-1">
        <mxGraphModel dx="1355" dy="693" grid="1" gridSize="10" guides="1" tooltips="1" connect="1" arrows="1" fold="1" page="1" pageScale="1" pageWidth="1169" pageHeight="827" math="1" shadow="0">
            <root>
                <mxCell id="0"/>
                <mxCell id="1" parent="0"/>
                <mxCell id="102" style="edgeStyle=elbowEdgeStyle;html=1;exitX=0.5;exitY=0;exitDx=0;exitDy=0;strokeColor=#0000CC;strokeWidth=3;fontColor=#0000CC;startArrow=classic;startFill=1;endArrow=classic;endFill=1;flowAnimation=1;" parent="1" source="82" edge="1">
                    <mxGeometry relative="1" as="geometry">
                        <mxPoint x="154" y="410" as="targetPoint"/>
                    </mxGeometry>
                </mxCell>
                <mxCell id="82" value="" style="rounded=1;noLabel=1;align=center;fillColor=#F0F0F0;strokeWidth=3;strokeColor=#0000CC;fontColor=#333333;" parent="1" vertex="1">
                    <mxGeometry x="87" y="465" width="133" height="130" as="geometry"/>
                </mxCell>
                <mxCell id="101" style="edgeStyle=elbowEdgeStyle;html=1;exitX=0;exitY=0.5;exitDx=0;exitDy=0;entryX=1;entryY=0.5;entryDx=0;entryDy=0;strokeColor=#0000CC;strokeWidth=3;fontColor=#0000CC;startArrow=classic;startFill=1;endArrow=classic;endFill=1;flowAnimation=1;" parent="1" source="83" target="82" edge="1">
                    <mxGeometry relative="1" as="geometry"/>
                </mxCell>
                <mxCell id="110" value="" style="edgeStyle=elbowEdgeStyle;html=1;strokeColor=#0000CC;strokeWidth=3;fontColor=#0000CC;startArrow=classic;startFill=1;endArrow=classic;endFill=1;flowAnimation=1;" parent="1" source="83" target="84" edge="1">
                    <mxGeometry relative="1" as="geometry"/>
                </mxCell>
                <mxCell id="83" value="" style="rounded=1;noLabel=1;align=center;fillColor=#F0F0F0;strokeWidth=3;strokeColor=#0000CC;fontColor=#333333;" parent="1" vertex="1">
                    <mxGeometry x="279.64" y="465.01" width="140.36" height="130" as="geometry"/>
                </mxCell>
                <mxCell id="84" value="" style="rounded=1;noLabel=1;align=center;fillColor=#F0F0F0;strokeWidth=3;strokeColor=#0000CC;fontColor=#333333;" parent="1" vertex="1">
                    <mxGeometry x="480" y="465" width="600" height="130" as="geometry"/>
                </mxCell>
                <mxCell id="80" value="" style="rounded=1;noLabel=1;align=center;fillColor=#F0F0F0;strokeWidth=3;strokeColor=#0000CC;fontColor=#333333;" parent="1" vertex="1">
                    <mxGeometry x="87" y="645" width="133" height="130" as="geometry"/>
                </mxCell>
                <mxCell id="100" value="" style="edgeStyle=elbowEdgeStyle;html=1;strokeColor=#0000CC;strokeWidth=3;fontColor=#0000CC;startArrow=classic;startFill=1;endArrow=classic;endFill=1;flowAnimation=1;elbow=vertical;" parent="1" edge="1" target="79">
                    <mxGeometry relative="1" as="geometry">
                        <mxPoint x="220" y="700" as="sourcePoint"/>
                    </mxGeometry>
                </mxCell>
                <mxCell id="79" value="" style="rounded=1;noLabel=1;align=center;fillColor=#F0F0F0;strokeWidth=3;strokeColor=#0000CC;fontColor=#333333;" parent="1" vertex="1">
                    <mxGeometry x="279.64" y="645" width="450.36" height="130" as="geometry"/>
                </mxCell>
                <mxCell id="99" style="edgeStyle=elbowEdgeStyle;html=1;exitX=0;exitY=0.5;exitDx=0;exitDy=0;entryX=1;entryY=0.5;entryDx=0;entryDy=0;strokeColor=#0000CC;strokeWidth=3;fontColor=#0000CC;startArrow=classic;startFill=1;endArrow=classic;endFill=1;flowAnimation=1;" parent="1" source="67" target="79" edge="1">
                    <mxGeometry relative="1" as="geometry"/>
                </mxCell>
                <mxCell id="67" value="" style="rounded=1;noLabel=1;align=center;fillColor=#F0F0F0;strokeWidth=3;strokeColor=#0000CC;fontColor=#333333;" parent="1" vertex="1">
                    <mxGeometry x="790" y="645" width="290" height="130" as="geometry"/>
                </mxCell>
                <mxCell id="41" value="" style="rounded=1;noLabel=1;align=center;fillColor=#F0F0F0;strokeWidth=3;strokeColor=#0000CC;fontColor=#333333;" parent="1" vertex="1">
                    <mxGeometry x="377" y="94" width="130" height="130" as="geometry"/>
                </mxCell>
                <mxCell id="106" value="" style="edgeStyle=elbowEdgeStyle;html=1;strokeColor=#0000CC;strokeWidth=3;fontColor=#0000CC;startArrow=classic;startFill=1;endArrow=classic;endFill=1;flowAnimation=1;exitX=0.213;exitY=-0.007;exitDx=0;exitDy=0;exitPerimeter=0;" parent="1" source="13" target="42" edge="1">
                    <mxGeometry relative="1" as="geometry"/>
                </mxCell>
                <mxCell id="42" value="" style="rounded=1;noLabel=1;align=center;fillColor=#F0F0F0;strokeWidth=3;strokeColor=#0000CC;fontColor=#333333;fontStyle=1" parent="1" vertex="1">
                    <mxGeometry x="663" y="94" width="130" height="130" as="geometry"/>
                </mxCell>
                <mxCell id="43" value="T" style="rounded=1;noLabel=1;align=center;fillColor=#F0F0F0;strokeWidth=3;strokeColor=#0000CC;fontColor=#333333;" parent="1" vertex="1">
                    <mxGeometry x="950" y="94" width="130" height="130" as="geometry"/>
                </mxCell>
                <mxCell id="12" value="" style="rounded=1;noLabel=1;align=center;fillColor=#F0F0F0;strokeWidth=3;strokeColor=#0000CC;fontColor=#333333;" parent="1" vertex="1">
                    <mxGeometry x="90" y="94" width="130" height="130" as="geometry"/>
                </mxCell>
                <mxCell id="13" value="APP CLIENT, PARTNER, DRIVER" style="rounded=1;align=center;fillColor=#F0F0F0;strokeWidth=3;strokeColor=#0000CC;fontColor=#0000CC;verticalAlign=bottom;fontStyle=1;labelPosition=center;verticalLabelPosition=middle;textDirection=ltr;spacingBottom=11;" parent="1" vertex="1">
                    <mxGeometry x="630" y="278" width="450" height="130" as="geometry"/>
                </mxCell>
                <mxCell id="103" style="edgeStyle=elbowEdgeStyle;html=1;exitX=0.5;exitY=0;exitDx=0;exitDy=0;entryX=0.5;entryY=1;entryDx=0;entryDy=0;strokeColor=#0000CC;strokeWidth=3;fontColor=#0000CC;startArrow=classic;startFill=1;endArrow=classic;endFill=1;flowAnimation=1;" parent="1" source="35" target="12" edge="1">
                    <mxGeometry relative="1" as="geometry"/>
                </mxCell>
                <mxCell id="35" value="" style="rounded=1;noLabel=1;align=center;fillColor=#F0F0F0;strokeWidth=3;strokeColor=#0000CC;fontColor=#333333;" parent="1" vertex="1">
                    <mxGeometry x="90" y="278" width="130" height="130" as="geometry"/>
                </mxCell>
                <mxCell id="7" value="NOTEBOOK" style="verticalLabelPosition=bottom;html=1;verticalAlign=top;align=center;strokeColor=none;fillColor=#0000CC;shape=mxgraph.azure.laptop;pointerEvents=1;flipH=0;flipV=0;fontColor=#0000CC;fontStyle=1" parent="1" vertex="1">
                    <mxGeometry x="411" y="134.5" width="50" height="30" as="geometry"/>
                </mxCell>
                <mxCell id="8" value="PHONE" style="verticalLabelPosition=bottom;html=1;verticalAlign=top;align=center;strokeColor=none;fillColor=#0000CC;shape=mxgraph.azure.mobile;pointerEvents=1;flipH=0;flipV=0;fontColor=#0000CC;fontStyle=1" parent="1" vertex="1">
                    <mxGeometry x="711" y="124.5" width="35" height="50" as="geometry"/>
                </mxCell>
                <mxCell id="15" value="&lt;font&gt;DATABASE&lt;/font&gt;" style="verticalLabelPosition=bottom;html=1;verticalAlign=top;align=center;strokeColor=none;fillColor=#0000CC;shape=mxgraph.azure.database;rounded=1;fontColor=#0000CC;fontStyle=1" parent="1" vertex="1">
                    <mxGeometry x="131.25" y="673.88" width="37.5" height="50" as="geometry"/>
                </mxCell>
                <mxCell id="20" value="FILES" style="verticalLabelPosition=bottom;html=1;verticalAlign=top;align=center;strokeColor=none;fillColor=#0000CC;shape=mxgraph.azure.file_2;pointerEvents=1;rounded=1;fontColor=#0000CC;fontStyle=1" parent="1" vertex="1">
                    <mxGeometry x="912" y="671" width="47.5" height="50" as="geometry"/>
                </mxCell>
                <mxCell id="24" value="" style="shape=image;verticalLabelPosition=bottom;labelBackgroundColor=default;verticalAlign=top;aspect=fixed;imageAspect=0;image=data:image/svg+xml,PHN2ZyB4bWxucz0iaHR0cDovL3d3dy53My5vcmcvMjAwMC9zdmciIHZpZXdCb3g9IjAgLTE4OS45MyA1MzkuODU2IDUzOS44NTYiIGhlaWdodD0iODAwcHgiIHdpZHRoPSI4MDBweCI+Cgo8ZyB0cmFuc2Zvcm09InNjYWxlKDQuMDAyMTYgNC4wMDExKSI+Cgo8cGF0aCBkPSJNMTM0LjAzMiAzNS4yNjhhMy44MyAzLjgzIDAgMCAxLTMuODM0IDMuODNINC43MjlhMy44MzUgMy44MzUgMCAwIDEtMy44MzktMy44M1Y0LjcyNUEzLjg0IDMuODQgMCAwIDEgNC43MjkuODloMTI1LjQ2OGEzLjgzNCAzLjgzNCAwIDAgMSAzLjgzNCAzLjgzNWwuMDAxIDMwLjU0M3oiIGZpbGw9IiNGRkYiLz4KCjxwYXRoIGQ9Ik0xMzAuMTk4IDM5Ljk4OUg0LjcyOUE0LjczIDQuNzMgMCAwIDEgMCAzNS4yNjhWNC43MjZBNC43MzMgNC43MzMgMCAwIDEgNC43MjkgMGgxMjUuNDY4YTQuNzM1IDQuNzM1IDAgMCAxIDQuNzI5IDQuNzI2djMwLjU0MmMuMDAyIDIuNjA0LTIuMTIzIDQuNzIxLTQuNzI4IDQuNzIxeiIgZmlsbD0iI0E2QTZBNiIvPgoKPHBhdGggZD0iTTEzNC4wMzIgMzUuMjY4YTMuODMgMy44MyAwIDAgMS0zLjgzNCAzLjgzSDQuNzI5YTMuODM1IDMuODM1IDAgMCAxLTMuODM5LTMuODNWNC43MjVBMy44NCAzLjg0IDAgMCAxIDQuNzI5Ljg5aDEyNS40NjhhMy44MzQgMy44MzQgMCAwIDEgMy44MzQgMy44MzVsLjAwMSAzMC41NDN6Ii8+Cgo8cGF0aCBkPSJNMzAuMTI4IDE5Ljc4NGMtLjAyOS0zLjIyMyAyLjYzOS00Ljc5MSAyLjc2MS00Ljg2NC0xLjUxMS0yLjIwMy0zLjg1My0yLjUwNC00LjY3Ni0yLjUyOC0xLjk2Ny0uMjA3LTMuODc1IDEuMTc3LTQuODc3IDEuMTc3LTEuMDIyIDAtMi41NjUtMS4xNTctNC4yMjgtMS4xMjMtMi4xNC4wMzMtNC4xNDIgMS4yNzItNS4yNCAzLjE5Ni0yLjI2NiAzLjkyMy0uNTc2IDkuNjg4IDEuNTk1IDEyLjg1OSAxLjA4NiAxLjU1NCAyLjM1NSAzLjI4NyA0LjAxNiAzLjIyNiAxLjYyNS0uMDY2IDIuMjMyLTEuMDM1IDQuMTkzLTEuMDM1IDEuOTQzIDAgMi41MTMgMS4wMzUgNC4yMDcuOTk2IDEuNzQ0LS4wMjcgMi44NDItMS41NiAzLjg5LTMuMTI3IDEuMjU1LTEuNzc5IDEuNzU5LTMuNTMzIDEuNzc5LTMuNjIzLS4wNC0uMDE0LTMuMzg2LTEuMjkyLTMuNDItNS4xNTR6TTI2LjkyOCAxMC4zMDZjLjg3NC0xLjA5MyAxLjQ3Mi0yLjU4IDEuMzA2LTQuMDg5LTEuMjY1LjA1Ni0yLjg0Ny44NzUtMy43NTggMS45NDQtLjgwNi45NDItMS41MjYgMi40ODYtMS4zNCAzLjkzOCAxLjQyMS4xMDYgMi44OC0uNzE3IDMuNzkyLTEuNzkzeiIgZmlsbD0iI0ZGRiIvPgoKPGxpbmVhckdyYWRpZW50IGdyYWRpZW50VHJhbnNmb3JtPSJtYXRyaXgoNC4wMDIyIDAgMCA0LjAwMTEgMTkxLjk1IC0zNDkuNzM2KSIgeTI9IjYxLjM4NiIgeDI9Ii0yMy4yMzUiIHkxPSI5Ny40MzEiIHgxPSItMjMuMjM1IiBncmFkaWVudFVuaXRzPSJ1c2VyU3BhY2VPblVzZSIgaWQ9ImEiPgoKPHN0b3Agc3RvcC1vcGFjaXR5PSIuMSIgc3RvcC1jb2xvcj0iIzFhMWExYSIgb2Zmc2V0PSIwIi8+Cgo8c3RvcCBzdG9wLW9wYWNpdHk9Ii4xNTEiIHN0b3AtY29sb3I9IiMyMTIxMjEiIG9mZnNldD0iLjEyMyIvPgoKPHN0b3Agc3RvcC1vcGFjaXR5PSIuMjI3IiBzdG9wLWNvbG9yPSIjMzUzNTM1IiBvZmZzZXQ9Ii4zMDgiLz4KCjxzdG9wIHN0b3Atb3BhY2l0eT0iLjMxOCIgc3RvcC1jb2xvcj0iIzU3NTc1NyIgb2Zmc2V0PSIuNTMyIi8+Cgo8c3RvcCBzdG9wLW9wYWNpdHk9Ii40MjEiIHN0b3AtY29sb3I9IiM4NTg1ODUiIG9mZnNldD0iLjc4MyIvPgoKPHN0b3Agc3RvcC1vcGFjaXR5PSIuNTEiIHN0b3AtY29sb3I9IiNiM2IzYjMiIG9mZnNldD0iMSIvPgoKPC9saW5lYXJHcmFkaWVudD4KCjxwYXRoIGQ9Ik0xMzAuMTk4IDBINjIuOTkzbDI2LjMyMyAzOS45ODloNDAuODgyYTQuNzMzIDQuNzMzIDAgMCAwIDQuNzI5LTQuNzI0VjQuNzI2QTQuNzM0IDQuNzM0IDAgMCAwIDEzMC4xOTggMHoiIGZpbGw9InVybCgjYSkiLz4KCjxnIGZpbGw9IiNGRkYiPgoKPHBhdGggZD0iTTUzLjY2NSAzMS41MDRoLTIuMjcxbC0xLjI0NC0zLjkwOWgtNC4zMjRsLTEuMTg1IDMuOTA5SDQyLjQzbDQuMjg1LTEzLjMwOGgyLjY0Nmw0LjMwNCAxMy4zMDh6bS0zLjg5LTUuNTQ5TDQ4LjY1IDIyLjQ4Yy0uMTE5LS4zNTUtLjM0My0xLjE5MS0uNjcxLTIuNTA3aC0uMDRjLS4xMzIuNTY2LS4zNDMgMS40MDItLjYzMiAyLjUwN2wtMS4xMDYgMy40NzVoMy41NzR6TTY0LjY2MyAyNi41ODhjMCAxLjYzMi0uNDQzIDIuOTIyLTEuMzMgMy44NjktLjc5NC44NDMtMS43ODEgMS4yNjQtMi45NTggMS4yNjQtMS4yNzEgMC0yLjE4NS0uNDUzLTIuNzQtMS4zNjF2NS4wMzVoLTIuMTMyVjI1LjA2MmMwLTEuMDI1LS4wMjctMi4wNzYtLjA3OS0zLjE1NGgxLjg3NWwuMTE5IDEuNTIxaC4wNGMuNzExLTEuMTQ2IDEuNzktMS43MTkgMy4yMzgtMS43MTkgMS4xMzIgMCAyLjA3Ny40NDcgMi44MzMgMS4zNDIuNzU1Ljg5NyAxLjEzNCAyLjA3NSAxLjEzNCAzLjUzNnptLTIuMTcyLjA3OGMwLS45MzQtLjIxLTEuNzA0LS42MzItMi4zMTEtLjQ2MS0uNjMxLTEuMDgtLjk0Ny0xLjg1Ni0uOTQ3LS41MjYgMC0xLjAwNC4xNzYtMS40MzEuNTIzLS40MjguMzUtLjcwOC44MDctLjgzOSAxLjM3M2EyLjc4NCAyLjc4NCAwIDAgMC0uMDk5LjY0OXYxLjYwMWMwIC42OTcuMjE0IDEuMjg2LjY0MiAxLjc2OC40MjguNDguOTg0LjcyMSAxLjY2OC43MjEuODAzIDAgMS40MjgtLjMxMSAxLjg3NS0uOTI4LjQ0OC0uNjE5LjY3Mi0xLjQzNS42NzItMi40NDl6TTc1LjcgMjYuNTg4YzAgMS42MzItLjQ0MyAyLjkyMi0xLjMzIDMuODY5LS43OTUuODQzLTEuNzgxIDEuMjY0LTIuOTU5IDEuMjY0LTEuMjcxIDAtMi4xODUtLjQ1My0yLjc0LTEuMzYxdjUuMDM1aC0yLjEzMlYyNS4wNjJjMC0xLjAyNS0uMDI3LTIuMDc2LS4wNzktMy4xNTRoMS44NzVsLjExOSAxLjUyMWguMDRjLjcxLTEuMTQ2IDEuNzg5LTEuNzE5IDMuMjM4LTEuNzE5IDEuMTMxIDAgMi4wNzYuNDQ3IDIuODM0IDEuMzQyLjc1NC44OTcgMS4xMzQgMi4wNzUgMS4xMzQgMy41MzZ6bS0yLjE3My4wNzhjMC0uOTM0LS4yMTEtMS43MDQtLjYzMy0yLjMxMS0uNDYxLS42MzEtMS4wNzgtLjk0Ny0xLjg1NC0uOTQ3LS41MjYgMC0xLjAwNC4xNzYtMS40MzMuNTIzLS40MjguMzUtLjcwNy44MDctLjgzOCAxLjM3My0uMDY1LjI2NC0uMS40NzktLjEuNjQ5djEuNjAxYzAgLjY5Ny4yMTUgMS4yODYuNjQxIDEuNzY4LjQyOC40NzkuOTg0LjcyMSAxLjY3LjcyMS44MDQgMCAxLjQyOS0uMzExIDEuODc1LS45MjguNDQ4LS42MTkuNjcyLTEuNDM1LjY3Mi0yLjQ0OXpNODguMDQgMjcuNzcxYzAgMS4xMzMtLjM5NiAyLjA1NC0xLjE4MyAyLjc2NS0uODY2Ljc3Ni0yLjA3NSAxLjE2NS0zLjYyNSAxLjE2NS0xLjQzMiAwLTIuNTgtLjI3Ni0zLjQ0Ni0uODI5bC40OTMtMS43NzdjLjkzNS41NTQgMS45NjIuODMgMy4wOC44My44MDQgMCAxLjQyOS0uMTgyIDEuODc1LS41NDMuNDQ3LS4zNjIuNjczLS44NDYuNjczLTEuNDUgMC0uNTQxLS4xODctLjk5NC0uNTU0LTEuMzYzLS4zNjktLjM2OC0uOTc5LS43MTEtMS44MzYtMS4wMjYtMi4zMy0uODY5LTMuNDk2LTIuMTQtMy40OTYtMy44MTIgMC0xLjA5Mi40MTItMS45ODYgMS4yMzQtMi42ODUuODIyLS42OTggMS45MTItMS4wNDcgMy4yNjgtMS4wNDcgMS4yMTEgMCAyLjIyLjIxMSAzLjAyMS42MzJsLS41MzUgMS43MzhjLS43NTQtLjQwOC0xLjYwNS0uNjEyLTIuNTU3LS42MTItLjc1MiAwLTEuMzQyLjE4NS0xLjc2NC41NTMtLjM1NS4zMjktLjUzNS43My0uNTM1IDEuMjA2IDAgLjUyNS4yMDUuOTYxLjYxMyAxLjMwMy4zNTQuMzE1IDEgLjY1OCAxLjkzNCAxLjAyNiAxLjE0Ni40NjIgMS45ODggMSAyLjUyNyAxLjYxOC41NDMuNjE4LjgxMyAxLjM4OS44MTMgMi4zMDh6TTk1LjEwNyAyMy41MDhoLTIuMzV2NC42NTljMCAxLjE4NS40MTQgMS43NzYgMS4yNDQgMS43NzYuMzgxIDAgLjY5Ny0uMDMyLjk0Ny0uMDk5bC4wNTkgMS42MTljLS40Mi4xNTctLjk3My4yMzYtMS42NTguMjM2LS44NDIgMC0xLjUtLjI1Ny0xLjk3NS0uNzcxLS40NzMtLjUxNC0uNzExLTEuMzc1LS43MTEtMi41ODd2LTQuODM3aC0xLjR2LTEuNmgxLjR2LTEuNzU3bDIuMDk0LS42MzJ2Mi4zODloMi4zNXYxLjYwNHpNMTA1LjY4OSAyNi42MjdjMCAxLjQ3NS0uNDIyIDIuNjg2LTEuMjY0IDMuNjMzLS44ODEuOTc1LTIuMDUzIDEuNDYxLTMuNTE0IDEuNDYxLTEuNDEgMC0yLjUzMS0uNDY3LTMuMzY3LTEuNC0uODM2LS45MzUtMS4yNTQtMi4xMTMtMS4yNTQtMy41MzQgMC0xLjQ4Ny40MzItMi43MDUgMS4yOTMtMy42NTIuODYzLS45NDggMi4wMjUtMS40MjIgMy40ODYtMS40MjIgMS40MDggMCAyLjUzOS40NjggMy4zOTUgMS40MDIuODE4LjkwNiAxLjIyNSAyLjA3NiAxLjIyNSAzLjUxMnptLTIuMjEuMDQ5YzAtLjg3OS0uMTktMS42MzMtLjU3MS0yLjI2NC0uNDQ3LS43NjItMS4wODctMS4xNDMtMS45MTYtMS4xNDMtLjg1NCAwLTEuNTA5LjM4MS0xLjk1NSAxLjE0My0uMzgyLjYzMS0uNTcyIDEuMzk4LS41NzIgMi4zMDQgMCAuODguMTkgMS42MzYuNTcyIDIuMjY1LjQ2MS43NjIgMS4xMDQgMS4xNDMgMS45MzcgMS4xNDMuODE1IDAgMS40NTQtLjM4OSAxLjkxNi0xLjE2Mi4zOTItLjY0Ni41ODktMS40MDUuNTg5LTIuMjg2ek0xMTIuNjIyIDIzLjc4M2EzLjcxIDMuNzEgMCAwIDAtLjY3Mi0uMDU5Yy0uNzUgMC0xLjMzLjI4Mi0xLjczOC44NS0uMzU0LjUtLjUzMiAxLjEzMi0uNTMyIDEuODk1djUuMDM1aC0yLjEzMlYyNC45M2E2Ny40MyA2Ny40MyAwIDAgMC0uMDYyLTMuMDIxaDEuODU3bC4wNzggMS44MzZoLjA1OWMuMjI2LS42MzEuNTgtMS4xNCAxLjA2Ni0xLjUyMWEyLjU3OCAyLjU3OCAwIDAgMSAxLjU0MS0uNTE0Yy4xOTcgMCAuMzc1LjAxNC41MzMuMDM5bC4wMDIgMi4wMzR6TTEyMi4xNTcgMjYuMjUyYTUgNSAwIDAgMS0uMDc4Ljk2N2gtNi4zOTZjLjAyNC45NDguMzM0IDEuNjc0LjkyOCAyLjE3NC41MzkuNDQ2IDEuMjM2LjY3IDIuMDkyLjY3Ljk0NyAwIDEuODExLS4xNSAyLjU4OC0uNDUzbC4zMzQgMS40NzljLS45MDguMzk2LTEuOTguNTkzLTMuMjE3LjU5My0xLjQ4OCAwLTIuNjU2LS40MzgtMy41MDYtMS4zMTItLjg0OC0uODc1LTEuMjczLTIuMDUxLTEuMjczLTMuNTI0IDAtMS40NDYuMzk1LTIuNjUxIDEuMTg2LTMuNjEyLjgyOC0xLjAyNiAxLjk0Ny0xLjUzOSAzLjM1NS0xLjUzOSAxLjM4MyAwIDIuNDMuNTEzIDMuMTQxIDEuNTM5LjU2My44MTMuODQ2IDEuODIxLjg0NiAzLjAxOHptLTIuMDMzLS41NTNjLjAxNS0uNjMzLS4xMjUtMS4xNzgtLjQxNC0xLjYzOS0uMzY5LS41OTQtLjkzNy0uODktMS42OTgtLjg5LS42OTcgMC0xLjI2NS4yODktMS42OTcuODY5LS4zNTUuNDYxLS41NjYgMS4wMTUtLjYzMSAxLjY1OGw0LjQ0LjAwMnoiLz4KCjwvZz4KCjxnIGZpbGw9IiNGRkYiPgoKPHBhdGggZD0iTTQ1LjIxMSAxMy40OTFjLS41OTMgMC0xLjEwNi0uMDI5LTEuNTMzLS4wNzhWNi45NzlhMTEuNjA2IDExLjYwNiAwIDAgMSAxLjgwNS0uMTM2YzIuNDQ1IDAgMy41NzEgMS4yMDMgMy41NzEgMy4xNjQgMCAyLjI2Mi0xLjMzIDMuNDg0LTMuODQzIDMuNDg0em0uMzU4LTUuODIzYy0uMzMgMC0uNjExLjAyLS44NDQuMDY4djQuODkxYy4xMjYuMDIuMzY4LjAyOS43MDguMDI5IDEuNjAyIDAgMi41MTQtLjkxMiAyLjUxNC0yLjYyIDAtMS41MjMtLjgyNS0yLjM2OC0yLjM3OC0yLjM2OHpNNTIuNTYzIDEzLjU0Yy0xLjM3OCAwLTIuMjcxLTEuMDI5LTIuMjcxLTIuNDI2IDAtMS40NTYuOTEyLTIuNDk0IDIuMzQ5LTIuNDk0IDEuMzU4IDAgMi4yNzEuOTggMi4yNzEgMi40MTcgMCAxLjQ3NC0uOTQxIDIuNTAzLTIuMzQ5IDIuNTAzem0uMDQtNC4xNTRjLS43NTcgMC0xLjI0Mi43MDgtMS4yNDIgMS42OTggMCAuOTcxLjQ5NSAxLjY3OSAxLjIzMiAxLjY3OXMxLjIzMi0uNzU3IDEuMjMyLTEuNjk5YzAtLjk2LS40ODUtMS42NzgtMS4yMjItMS42Nzh6TTYyLjc3IDguNzE3bC0xLjQ3NSA0LjcxNmgtLjk2MWwtLjYxMS0yLjA0OGExNS41MyAxNS41MyAwIDAgMS0uMzc5LTEuNTIzaC0uMDJjLS4wNzcuNTE0LS4yMjMgMS4wMjktLjM3OCAxLjUyM2wtLjY1IDIuMDQ4aC0uOTcxbC0xLjM4OC00LjcxNmgxLjA3N2wuNTM0IDIuMjQyYy4xMjYuNTM0LjIzMiAxLjAzOC4zMiAxLjUxNGguMDJjLjA3Ny0uMzk3LjIwMy0uODkzLjM4OC0xLjUwNGwuNjctMi4yNTFoLjg1NGwuNjQxIDIuMjAzYy4xNTUuNTM0LjI4MSAxLjA1OC4zNzkgMS41NTNoLjAyOGMuMDY4LS40ODUuMTc1LTEgLjMyLTEuNTUzbC41NzMtMi4yMDMgMS4wMjktLjAwMXpNNjguMiAxMy40MzNoLTEuMDQ4di0yLjcwOGMwLS44MzQtLjMyLTEuMjUyLS45NTEtMS4yNTItLjYyMSAwLTEuMDQ4LjUzNC0xLjA0OCAxLjE1NXYyLjgwNWgtMS4wNDh2LTMuMzY4YzAtLjQxNy0uMDEtLjg2NC0uMDM5LTEuMzQ5aC45MjJsLjA0OS43MjhoLjAyOWMuMjgyLS41MDQuODU0LS44MjQgMS40OTUtLjgyNC45OSAwIDEuNjQuNzU3IDEuNjQgMS45ODlsLS4wMDEgMi44MjR6TTcxLjA5IDEzLjQzM2gtMS4wNDl2LTYuODhoMS4wNDl2Ni44OHpNNzQuOTExIDEzLjU0Yy0xLjM3NyAwLTIuMjcxLTEuMDI5LTIuMjcxLTIuNDI2IDAtMS40NTYuOTEyLTIuNDk0IDIuMzQ4LTIuNDk0IDEuMzU5IDAgMi4yNzEuOTggMi4yNzEgMi40MTcuMDAxIDEuNDc0LS45NDEgMi41MDMtMi4zNDggMi41MDN6bS4wMzktNC4xNTRjLS43NTcgMC0xLjI0Mi43MDgtMS4yNDIgMS42OTggMCAuOTcxLjQ5NiAxLjY3OSAxLjIzMSAxLjY3OS43MzggMCAxLjIzMi0uNzU3IDEuMjMyLTEuNjk5LjAwMS0uOTYtLjQ4My0xLjY3OC0xLjIyMS0xLjY3OHpNODEuMzkxIDEzLjQzM2wtLjA3Ni0uNTQzaC0uMDI4Yy0uMzIuNDM3LS43ODcuNjUtMS4zNzkuNjUtLjg0NSAwLTEuNDQ1LS41OTItMS40NDUtMS4zODggMC0xLjE2NCAxLjAwOS0xLjc2NiAyLjc1Ni0xLjc2NnYtLjA4N2MwLS42MjEtLjMyOS0uOTMyLS45NzktLjkzMi0uNDY1IDAtLjg3My4xMTctMS4yMzIuMzVsLS4yMTMtLjY4OWMuNDM2LS4yNzIuOTgtLjQwOCAxLjYxOS0uNDA4IDEuMjMyIDAgMS44NTQuNjUgMS44NTQgMS45NTF2MS43MzdjMCAuNDc2LjAyMS44NDUuMDY4IDEuMTI2bC0uOTQ1LS4wMDF6bS0uMTQ0LTIuMzQ5Yy0xLjE2NCAwLTEuNzQ4LjI4Mi0xLjc0OC45NTEgMCAuNDk1LjMwMS43MzcuNzE5LjczNy41MzMgMCAxLjAyOS0uNDA3IDEuMDI5LS45NnYtLjcyOHpNODcuMzU3IDEzLjQzM2wtLjA0OS0uNzU3aC0uMDI5Yy0uMzAxLjU3Mi0uODA3Ljg2NC0xLjUxNC44NjQtMS4xMzcgMC0xLjk3OS0xLTEuOTc5LTIuNDA3IDAtMS40NzUuODczLTIuNTE0IDIuMDY1LTIuNTE0LjYzMSAwIDEuMDc4LjIxMyAxLjMzLjY0MWguMDIxVjYuNTUzaDEuMDQ5djUuNjA5YzAgLjQ1Ni4wMTEuODgzLjAzOSAxLjI3MWgtLjkzM3ptLS4xNTUtMi43NzVjMC0uNjYtLjQzNy0xLjIyMy0xLjEwNC0xLjIyMy0uNzc3IDAtMS4yNTIuNjg5LTEuMjUyIDEuNjU5IDAgLjk1MS40OTMgMS42MDIgMS4yMzEgMS42MDIuNjU5IDAgMS4xMjUtLjU3MyAxLjEyNS0xLjI1MnYtLjc4NnpNOTQuOTAyIDEzLjU0Yy0xLjM3NyAwLTIuMjctMS4wMjktMi4yNy0yLjQyNiAwLTEuNDU2LjkxMi0yLjQ5NCAyLjM0OC0yLjQ5NCAxLjM1OSAwIDIuMjcxLjk4IDIuMjcxIDIuNDE3LjAwMSAxLjQ3NC0uOTQgMi41MDMtMi4zNDkgMi41MDN6bS4wMzktNC4xNTRjLS43NTYgMC0xLjI0MS43MDgtMS4yNDEgMS42OTggMCAuOTcxLjQ5NSAxLjY3OSAxLjIzMSAxLjY3OS43MzggMCAxLjIzMi0uNzU3IDEuMjMyLTEuNjk5LjAwMi0uOTYtLjQ4My0xLjY3OC0xLjIyMi0xLjY3OHpNMTAyLjg4NyAxMy40MzNoLTEuMDQ5di0yLjcwOGMwLS44MzQtLjMyLTEuMjUyLS45NTEtMS4yNTItLjYyMSAwLTEuMDQ3LjUzNC0xLjA0NyAxLjE1NXYyLjgwNWgtMS4wNDl2LTMuMzY4YzAtLjQxNy0uMDEtLjg2NC0uMDM5LTEuMzQ5aC45MjJsLjA0OS43MjhoLjAyOWMuMjgxLS41MDQuODU0LS44MjUgMS40OTQtLjgyNS45OSAwIDEuNjQxLjc1NyAxLjY0MSAxLjk4OXYyLjgyNXpNMTA5LjkzOCA5LjUwM2gtMS4xNTN2Mi4yOWMwIC41ODMuMjAyLjg3NC42MS44NzQuMTg1IDAgLjM0LS4wMi40NjUtLjA0OWwuMDI5Ljc5NmMtLjIwMy4wNzgtLjQ3NS4xMTctLjgxMy4xMTctLjgyNiAwLTEuMzItLjQ1Ni0xLjMyLTEuNjVWOS41MDNoLS42ODh2LS43ODZoLjY4OHYtLjg2NGwxLjAyOS0uMzExdjEuMTc0aDEuMTUzdi43ODd6TTExNS40ODYgMTMuNDMzaC0xLjA0N3YtMi42ODhjMC0uODQ0LS4zMTktMS4yNzEtLjk1MS0xLjI3MS0uNTQzIDAtMS4wNDkuMzY5LTEuMDQ5IDEuMTE2djIuODQzaC0xLjA0N3YtNi44OGgxLjA0N3YyLjgzM2guMDIxYy4zMy0uNTE0LjgwOC0uNzY3IDEuNDE4LS43NjcuOTk4IDAgMS42MDguNzc2IDEuNjA4IDIuMDA5djIuODA1ek0xMjEuMTcgMTEuMzI3aC0zLjE0NWMuMDIuODkzLjYxMSAxLjM5NyAxLjQ4NiAxLjM5Ny40NjUgMCAuODkzLS4wNzggMS4yNzEtLjIyM2wuMTYzLjcyOGMtLjQ0Ni4xOTQtLjk3MS4yOTEtMS41ODIuMjkxLTEuNDc1IDAtMi4zNDgtLjkzMi0yLjM0OC0yLjM3NyAwLTEuNDQ2Ljg5NC0yLjUzMyAyLjIzLTIuNTMzIDEuMjA1IDAgMS45NjEuODkzIDEuOTYxIDIuMjQyYTIuMDIgMi4wMiAwIDAgMS0uMDM2LjQ3NXptLS45NjEtLjc0N2MwLS43MjgtLjM2Ny0xLjI0Mi0xLjAzNy0xLjI0Mi0uNjAyIDAtMS4wNzguNTI0LTEuMTQ2IDEuMjQyaDIuMTgzeiIvPgoKPC9nPgoKPC9nPgoKPC9zdmc+;" parent="1" vertex="1">
                    <mxGeometry x="847" y="236.35000000000002" width="209" height="209" as="geometry"/>
                </mxCell>
                <mxCell id="25" value="" style="dashed=0;outlineConnect=0;html=1;align=center;labelPosition=center;verticalLabelPosition=bottom;verticalAlign=top;shape=mxgraph.webicons.google_play;fillColor=#000000;rounded=1;fontColor=none;" parent="1" vertex="1">
                    <mxGeometry x="650" y="311.55" width="182" height="58.6" as="geometry"/>
                </mxCell>
                <mxCell id="36" value="&lt;b&gt;TABLET&lt;/b&gt;" style="sketch=0;pointerEvents=1;shadow=0;dashed=0;html=1;strokeColor=none;fillColor=#0000CC;labelPosition=center;verticalLabelPosition=bottom;verticalAlign=top;outlineConnect=0;align=center;shape=mxgraph.office.devices.tablet_ipad;rounded=1;strokeWidth=3;fontColor=#0000CC;" parent="1" vertex="1">
                    <mxGeometry x="997" y="123.5" width="39" height="52" as="geometry"/>
                </mxCell>
                <mxCell id="46" value="WWW ADMIN" style="sketch=0;pointerEvents=1;shadow=0;dashed=0;html=1;strokeColor=none;fillColor=#0000CC;aspect=fixed;labelPosition=center;verticalLabelPosition=bottom;verticalAlign=top;align=center;outlineConnect=0;shape=mxgraph.vvd.web_browser;rounded=1;strokeWidth=4;fontColor=#0000CC;fontStyle=1;perimeterSpacing=0;" parent="1" vertex="1">
                    <mxGeometry x="119" y="310" width="70" height="49.7" as="geometry"/>
                </mxCell>
                <mxCell id="29" value="" style="shape=image;verticalLabelPosition=bottom;labelBackgroundColor=#28a745;verticalAlign=top;aspect=fixed;imageAspect=0;image=data:image/svg+xml,PHN2ZyB4bWxucz0iaHR0cDovL3d3dy53My5vcmcvMjAwMC9zdmciIHZpZXdCb3g9IjAgMCAyNCAyNCIgaGVpZ2h0PSI4MDBweCIgd2lkdGg9IjgwMHB4Ij48cmVjdCBmaWxsPSJub25lIiBoZWlnaHQ9IjI0IiB3aWR0aD0iMjQiLz48cGF0aCBmaWxsLXJ1bGU9ImV2ZW5vZGQiIGQ9Ik0yMCw2SDRBMiwyLDAsMCwwLDIsOHY4YTIsMiwwLDAsMCwyLDJIMjBhMiwyLDAsMCwwLDItMlY4QTIsMiwwLDAsMCwyMCw2Wk05LjI5LDE0LjgsOSwxMy43M0g3LjE2TDYuODcsMTQuOEg1LjE3TDcsOS4wN0g5LjA5TDExLDE0LjhabTYuMzQtMy4xNGExLjcsMS43LDAsMCwxLS4zNi42NCwxLjgyLDEuODIsMCwwLDEtLjY3LjQ0LDIuNzUsMi43NSwwLDAsMS0xLC4xN2gtLjQ0VjE0LjhIMTEuNlY5LjA5aDJhMi40MywyLjQzLDAsMCwxLDEuNjIuNDcsMS42NywxLjY3LDAsMCwxLC41NSwxLjM1QTIuMzYsMi4zNiwwLDAsMSwxNS42MywxMS42NlptMi41OCwzLjE0SDE2LjY2VjkuMDloMS41NVpNOC40NSwxMS41M2wuMjQuOTNINy40OGwuMjQtLjkzYzAtLjEzLjA4LS4yOC4xMi0uNDdzLjA5LS4zOC4xMy0uNTdhNC42Myw0LjYzLDAsMCwwLC4xLS40OGMwLC4xMy4wNy4yOS4xMS41bC4xNS41OFptNS41OS0xYS41Ny41NywwLDAsMSwuMTYuNDMuNzUuNzUsMCwwLDEtLjExLjQyLjU5LjU5LDAsMCwxLS4yNy4yMi45LjksMCwwLDEtLjM3LjA3aC0uMzFWMTAuMzRoLjRBLjYzLjYzLDAsMCwxLDE0LDEwLjUxWiIvPjwvc3ZnPg==;fontColor=#0000CC;" parent="1" vertex="1">
                    <mxGeometry x="297.32000000000005" y="477.505" width="105" height="105" as="geometry"/>
                </mxCell>
                <mxCell id="61" value="FLUTTER" style="shape=image;verticalLabelPosition=bottom;labelBackgroundColor=none;verticalAlign=top;aspect=fixed;imageAspect=0;image=data:image/svg+xml,PHN2ZyB4bWxucz0iaHR0cDovL3d3dy53My5vcmcvMjAwMC9zdmciIHZpZXdCb3g9IjAgMCAzMiAzMiIgaGVpZ2h0PSI4MDBweCIgd2lkdGg9IjgwMHB4IiBmaWxsPSIjMDAwMDAwIj4KICA8cGF0aCBkPSJNMTkuMDgzIDBsLTE2LjAxNSAxNiA0LjkzMiA0LjkzMiAyMC45MTItMjAuOTE2aC05LjgwOHpNMTkuMTA0IDE0Ljc2bC04LjYzMSA4LjYwOSA4LjYzMSA4LjYzMWg5LjgyOGwtOC42MTUtOC42MjUgOC42MTUtOC42MTV6Ii8+Cjwvc3ZnPg==;fontColor=#0000CC;fontStyle=1;imageBackground=none;imageBorder=none;strokeWidth=10;" parent="1" vertex="1">
                    <mxGeometry x="688" y="483.665" width="80" height="80" as="geometry"/>
                </mxCell>
                <mxCell id="62" value="&lt;span style=&quot;font-size: 25px;&quot;&gt;&lt;b&gt;TECH STACK&lt;/b&gt;&lt;/span&gt;" style="rounded=1;whiteSpace=wrap;html=1;labelBackgroundColor=none;sketch=0;strokeColor=#0000CC;strokeWidth=4;fontColor=#0000CC;fillColor=#F0F0F0;" parent="1" vertex="1">
                    <mxGeometry x="260" y="9" width="630" height="60" as="geometry"/>
                </mxCell>
                <mxCell id="66" value="BLAZOR" style="shape=image;verticalLabelPosition=bottom;labelBackgroundColor=none;verticalAlign=top;aspect=fixed;imageAspect=0;image=data:image/svg+xml,PHN2ZyB4bWxucz0iaHR0cDovL3d3dy53My5vcmcvMjAwMC9zdmciIHJvbGU9ImltZyIgdmlld0JveD0iMCAwIDI0IDI0IiBoZWlnaHQ9IjgwMHB4IiB3aWR0aD0iODAwcHgiIGZpbGw9IiMwMDAwMDAiPjx0aXRsZT4uTkVUIGljb248L3RpdGxlPjxwYXRoIGQ9Ik0zLjE2NzIgNy41NjU1djguNzQ5SDQuMTl2LTYuMzI1YTguOTc5IDguOTc5IDAgMCAwLS4wNDg4LTEuMTk5OGguMDM4NGEyLjkwODIgMi45MDgyIDAgMCAwIC4yNzg0LjU0NzNsNC40OTczIDYuOTc3NGgxLjI1NjlWNy41NjU1SDkuMTkwNHY2LjE1MjZhOS4yNTc0IDkuMjU3NCAwIDAgMCAuMDYxOSAxLjI4NmgtLjAyMzRjLS4wNTQ0LS4xMDU2LS4xNzMtLjMwMDItLjM1NTMtLjU4NUw0LjQ5NjQgNy41NjU2em05LjMxNSAwdjguNzQ5aDQuNjVsLjAwNDgtLjk1OTloLTMuNjA4N3YtMy4wMzMxaDMuMTU3OVYxMS40aC0zLjE1NzlWOC40OTE2aDMuMzg4NHYtLjkyNnptNS40Mzc0IDB2LjkyNmgyLjUxNDl2Ny44MjNoMS4wMjE2di03LjgyM0gyNHYtLjkyNnpNLjY1MzQgMTUuMDY3YS42NDMuNjQzIDAgMCAwLS40NTY1LjIwNjJBLjY3MTkuNjcxOSAwIDAgMCAwIDE1Ljc1M2EuNjYyMy42NjIzIDAgMCAwIC4xOTY4LjQ3OTkuNjQ3OS42NDc5IDAgMCAwIC40Nzk5LjIwMTUuNjYyMy42NjIzIDAgMCAwIC40Nzk5LS4yMDE1LjY1NzUuNjU3NSAwIDAgMCAuMjAxNS0uNDguNjY3LjY2NyAwIDAgMC0uMjAxNS0uNDc5OC42NTc1LjY1NzUgMCAwIDAtLjQ3OTktLjIwNjIuNjQzLjY0MyAwIDAgMC0uMDIzNCAweiIvPjwvc3ZnPg==;fontColor=#0000CC;imageBackground=none;imageBorder=none;strokeWidth=3;fontStyle=1;perimeterSpacing=9;" parent="1" vertex="1">
                    <mxGeometry x="116.33" y="489.99" width="67.35" height="67.35" as="geometry"/>
                </mxCell>
                <mxCell id="72" value="BUSINESS LOGIC" style="shape=image;verticalLabelPosition=bottom;labelBackgroundColor=none;verticalAlign=top;aspect=fixed;imageAspect=0;image=data:image/svg+xml,PHN2ZyB4bWxucz0iaHR0cDovL3d3dy53My5vcmcvMjAwMC9zdmciIHJvbGU9ImltZyIgdmlld0JveD0iMCAwIDI0IDI0IiBoZWlnaHQ9IjgwMHB4IiB3aWR0aD0iODAwcHgiIGZpbGw9IiMwMDAwMDAiPjx0aXRsZT4uTkVUIGljb248L3RpdGxlPjxwYXRoIGQ9Ik0zLjE2NzIgNy41NjU1djguNzQ5SDQuMTl2LTYuMzI1YTguOTc5IDguOTc5IDAgMCAwLS4wNDg4LTEuMTk5OGguMDM4NGEyLjkwODIgMi45MDgyIDAgMCAwIC4yNzg0LjU0NzNsNC40OTczIDYuOTc3NGgxLjI1NjlWNy41NjU1SDkuMTkwNHY2LjE1MjZhOS4yNTc0IDkuMjU3NCAwIDAgMCAuMDYxOSAxLjI4NmgtLjAyMzRjLS4wNTQ0LS4xMDU2LS4xNzMtLjMwMDItLjM1NTMtLjU4NUw0LjQ5NjQgNy41NjU2em05LjMxNSAwdjguNzQ5aDQuNjVsLjAwNDgtLjk1OTloLTMuNjA4N3YtMy4wMzMxaDMuMTU3OVYxMS40aC0zLjE1NzlWOC40OTE2aDMuMzg4NHYtLjkyNnptNS40Mzc0IDB2LjkyNmgyLjUxNDl2Ny44MjNoMS4wMjE2di03LjgyM0gyNHYtLjkyNnpNLjY1MzQgMTUuMDY3YS42NDMuNjQzIDAgMCAwLS40NTY1LjIwNjJBLjY3MTkuNjcxOSAwIDAgMCAwIDE1Ljc1M2EuNjYyMy42NjIzIDAgMCAwIC4xOTY4LjQ3OTkuNjQ3OS42NDc5IDAgMCAwIC40Nzk5LjIwMTUuNjYyMy42NjIzIDAgMCAwIC40Nzk5LS4yMDE1LjY1NzUuNjU3NSAwIDAgMCAuMjAxNS0uNDguNjY3LjY2NyAwIDAgMC0uMjAxNS0uNDc5OC42NTc1LjY1NzUgMCAwIDAtLjQ3OTktLjIwNjIuNjQzLjY0MyAwIDAgMC0uMDIzNCAweiIvPjwvc3ZnPg==;fontColor=#0000CC;imageBackground=none;imageBorder=none;strokeWidth=3;fontStyle=1;perimeterSpacing=9;" parent="1" vertex="1">
                    <mxGeometry x="439.65" y="662.325" width="67.35" height="67.35" as="geometry"/>
                </mxCell>
                <mxCell id="94" style="edgeStyle=elbowEdgeStyle;html=1;entryX=1;entryY=0.5;entryDx=0;entryDy=0;strokeColor=#0000CC;strokeWidth=3;fontColor=#0000CC;startArrow=classic;startFill=1;flowAnimation=1;endArrow=classic;endFill=1;" parent="1" target="89" edge="1">
                    <mxGeometry relative="1" as="geometry">
                        <mxPoint x="570" y="470" as="sourcePoint"/>
                        <Array as="points">
                            <mxPoint x="570" y="380"/>
                        </Array>
                    </mxGeometry>
                </mxCell>
                <mxCell id="104" style="edgeStyle=elbowEdgeStyle;html=1;exitX=0.5;exitY=0;exitDx=0;exitDy=0;strokeColor=#0000CC;strokeWidth=3;fontColor=#0000CC;startArrow=classic;startFill=1;endArrow=classic;endFill=1;flowAnimation=1;" parent="1" source="89" target="41" edge="1">
                    <mxGeometry relative="1" as="geometry"/>
                </mxCell>
                <mxCell id="89" value="" style="rounded=1;noLabel=1;align=center;fillColor=#F0F0F0;strokeWidth=3;strokeColor=#0000CC;fontColor=#333333;" parent="1" vertex="1">
                    <mxGeometry x="371" y="278" width="130" height="130" as="geometry"/>
                </mxCell>
                <mxCell id="45" value="WWW CLIENT" style="sketch=0;pointerEvents=1;shadow=0;dashed=0;html=1;strokeColor=none;fillColor=#0000CC;aspect=fixed;labelPosition=center;verticalLabelPosition=bottom;verticalAlign=top;align=center;outlineConnect=0;shape=mxgraph.vvd.web_browser;rounded=1;strokeWidth=4;fontColor=#0000CC;fontStyle=1;perimeterSpacing=0;" parent="1" vertex="1">
                    <mxGeometry x="399" y="310" width="70" height="49.7" as="geometry"/>
                </mxCell>
                <mxCell id="91" value="NOTEBOOK" style="verticalLabelPosition=bottom;html=1;verticalAlign=top;align=center;strokeColor=none;fillColor=#0000CC;shape=mxgraph.azure.laptop;pointerEvents=1;flipH=0;flipV=0;fontColor=#0000CC;fontStyle=1" parent="1" vertex="1">
                    <mxGeometry x="128.5" y="132.5" width="50" height="30" as="geometry"/>
                </mxCell>
                <mxCell id="95" style="edgeStyle=elbowEdgeStyle;html=1;exitX=0.5;exitY=0;exitDx=0;exitDy=0;strokeColor=#0000CC;strokeWidth=3;fontColor=#0000CC;startArrow=classic;startFill=1;flowAnimation=1;endArrow=classic;endFill=1;" parent="1" source="84" target="13" edge="1">
                    <mxGeometry relative="1" as="geometry">
                        <mxPoint x="580" y="479.94000000000005" as="sourcePoint"/>
                        <mxPoint x="511" y="353" as="targetPoint"/>
                    </mxGeometry>
                </mxCell>
                <mxCell id="96" style="html=1;entryX=0.5;entryY=1;entryDx=0;entryDy=0;strokeColor=#0000CC;strokeWidth=3;fontColor=#0000CC;startArrow=classic;startFill=1;flowAnimation=1;edgeStyle=elbowEdgeStyle;endArrow=classic;endFill=1;elbow=vertical;" parent="1" target="83" edge="1">
                    <mxGeometry relative="1" as="geometry">
                        <mxPoint x="350" y="640" as="sourcePoint"/>
                        <mxPoint x="511" y="353" as="targetPoint"/>
                    </mxGeometry>
                </mxCell>
                <mxCell id="108" value="" style="edgeStyle=elbowEdgeStyle;html=1;strokeColor=#0000CC;strokeWidth=3;fontColor=#0000CC;startArrow=classic;startFill=1;entryX=0.5;entryY=1;entryDx=0;entryDy=0;exitX=0.804;exitY=0.257;exitDx=0;exitDy=0;exitPerimeter=0;endArrow=classic;endFill=1;flowAnimation=1;" parent="1" target="43" edge="1">
                    <mxGeometry relative="1" as="geometry">
                        <mxPoint x="1015.0360000000001" y="277.063" as="sourcePoint"/>
                        <mxPoint x="1015" y="211" as="targetPoint"/>
                        <Array as="points">
                            <mxPoint x="1015" y="267"/>
                        </Array>
                    </mxGeometry>
                </mxCell>
            </root>
        </mxGraphModel>
    </diagram>
</mxfile>